<!DOCTYPE svg PUBLIC "-//W3C//DTD SVG 20010904//EN" "http://www.w3.org/TR/2001/REC-SVG-20010904/DTD/svg10.dtd">
<svg version="1.0" xmlns="http://www.w3.org/2000/svg" width="585px" height="185px" viewBox="0 0 5850 1850" preserveAspectRatio="xMidYMid meet">
<g id="layer1" fill="#97e0e2" stroke="none">
 <path d="M5003 1143 c15 -2 39 -2 55 0 15 2 2 4 -28 4 -30 0 -43 -2 -27 -4z"/>
 </g>
<g id="layer2" fill="#97e1df" stroke="none">
 <path d="M5068 1023 c18 -2 45 -2 60 0 15 2 0 4 -33 4 -33 0 -45 -2 -27 -4z"/>
 <path d="M1768 773 c12 -2 30 -2 40 0 9 3 -1 5 -23 4 -22 0 -30 -2 -17 -4z"/>
 <path d="M2233 773 c9 -2 25 -2 35 0 9 3 1 5 -18 5 -19 0 -27 -2 -17 -5z"/>
 <path d="M4997 773 c18 -2 50 -2 70 0 21 2 7 4 -32 4 -38 0 -55 -2 -38 -4z"/>
 </g>
<g id="layer3" fill="#8cdedd" stroke="none">
 <path d="M1004 960 c0 -113 2 -159 3 -102 2 56 2 148 0 205 -1 56 -3 10 -3 -103z"/>
 <path d="M3840 1003 c-3 -51 -1 -89 3 -84 4 4 7 46 5 92 l-3 84 -5 -92z"/>
 <path d="M3773 1020 c0 -30 2 -43 4 -27 2 15 2 39 0 55 -2 15 -4 2 -4 -28z"/>
 <path d="M1768 1013 c12 -2 32 -2 45 0 12 2 2 4 -23 4 -25 0 -35 -2 -22 -4z"/>
 <path d="M2228 1013 c12 -2 32 -2 45 0 12 2 2 4 -23 4 -25 0 -35 -2 -22 -4z"/>
 <path d="M5153 760 c0 -41 2 -58 4 -37 2 20 2 54 0 75 -2 20 -4 3 -4 -38z"/>
 </g>
<g id="layer4" fill="#9de3e2" stroke="none">
 <path d="M2884 960 c0 -113 2 -159 3 -102 2 56 2 148 0 205 -1 56 -3 10 -3 -103z"/>
 <path d="M3194 960 c0 -113 2 -159 3 -102 2 56 2 148 0 205 -1 56 -3 10 -3 -103z"/>
 <path d="M1303 1123 c37 -2 97 -2 135 0 37 2 6 3 -68 3 -74 0 -105 -1 -67 -3z"/>
 <path d="M4033 1123 c37 -2 97 -2 135 0 37 2 6 3 -68 3 -74 0 -105 -1 -67 -3z"/>
 <path d="M1308 1103 c34 -2 90 -2 125 0 34 2 6 3 -63 3 -69 0 -97 -1 -62 -3z"/>
 <path d="M4038 1103 c34 -2 90 -2 125 0 34 2 6 3 -63 3 -69 0 -97 -1 -62 -3z"/>
 <path d="M3703 983 c9 -2 25 -2 35 0 9 3 1 5 -18 5 -19 0 -27 -2 -17 -5z"/>
 <path d="M3708 963 c12 -2 32 -2 45 0 12 2 2 4 -23 4 -25 0 -35 -2 -22 -4z"/>
 </g>
<g id="layer5" fill="#afe8e7" stroke="none">
 <path d="M1084 960 c0 -151 2 -213 3 -137 2 75 2 199 0 275 -1 75 -3 13 -3 -138z"/>
 <path d="M2900 977 l5 -192 3 184 c1 102 -1 188 -5 192 -5 5 -6 -78 -3 -184z"/>
 <path d="M4963 1163 c26 -2 68 -2 95 0 26 2 4 3 -48 3 -52 0 -74 -1 -47 -3z"/>
 <path d="M3172 948 c-1 -103 1 -189 6 -191 4 -3 6 52 4 121 -4 234 -8 258 -10 70z"/>
 <path d="M1773 1033 c15 -2 37 -2 50 0 12 2 0 4 -28 4 -27 0 -38 -2 -22 -4z"/>
 <path d="M2233 1033 c15 -2 39 -2 55 0 15 2 2 4 -28 4 -30 0 -43 -2 -27 -4z"/>
 <path d="M5153 960 c0 -41 2 -58 4 -37 2 20 2 54 0 75 -2 20 -4 3 -4 -38z"/>
 <path d="M1753 753 c15 -2 39 -2 55 0 15 2 2 4 -28 4 -30 0 -43 -2 -27 -4z"/>
 <path d="M2213 753 c15 -2 39 -2 55 0 15 2 2 4 -28 4 -30 0 -43 -2 -27 -4z"/>
 <path d="M4963 753 c26 -2 68 -2 95 0 26 2 4 3 -48 3 -52 0 -74 -1 -47 -3z"/>
 </g>
<g id="layer6" fill="#6fd6d4" stroke="none">
 <path d="M914 1135 c0 -55 1 -76 3 -47 2 29 2 74 0 100 -2 26 -3 2 -3 -53z"/>
 <path d="M2213 1100 c0 -36 2 -50 4 -32 2 17 2 47 0 65 -2 17 -4 3 -4 -33z"/>
 <path d="M2674 955 c0 -116 2 -161 3 -102 2 59 2 154 0 210 -1 56 -3 8 -3 -108z"/>
 <path d="M1348 1063 c12 -2 30 -2 40 0 9 3 -1 5 -23 4 -22 0 -30 -2 -17 -4z"/>
 <path d="M4078 1063 c12 -2 30 -2 40 0 9 3 -1 5 -23 4 -22 0 -30 -2 -17 -4z"/>
 <path d="M2214 895 c0 -66 1 -92 3 -57 2 34 2 88 0 120 -2 31 -3 3 -3 -63z"/>
 <path d="M4978 943 c23 -2 59 -2 80 0 20 2 1 4 -43 4 -44 0 -61 -2 -37 -4z"/>
 <path d="M5043 893 c20 -2 54 -2 75 0 20 2 3 4 -38 4 -41 0 -58 -2 -37 -4z"/>
 </g>
<g id="layer7" fill="#4fcdca" stroke="none">
 <path d="M3509 1225 c-26 -8 -69 -35 -97 -60 -147 -132 -110 -375 68 -459 64 -29 178 -28 238 2 23 12 42 25 42 28 0 3 -20 34 -45 68 l-45 64 -43 -16 c-39 -14 -45 -14 -79 2 -94 45 -85 176 14 217 33 14 96 0 118 -26 11 -13 8 -15 -14 -15 -25 0 -26 -2 -26 -55 l0 -55 100 0 100 0 0 94 0 94 -40 40 c-21 23 -58 51 -82 63 -54 28 -147 34 -209 14z m178 -76 c67 -32 93 -70 93 -135 l0 -54 -50 0 c-38 0 -50 4 -50 15 0 11 11 15 36 15 35 0 35 0 32 41 -7 92 -139 140 -238 87 -119 -64 -122 -248 -5 -316 33 -18 52 -22 104 -20 73 3 98 -16 36 -28 -138 -26 -255 68 -255 205 0 158 156 258 297 190z"/>
 <path d="M4535 1227 c-132 -44 -198 -133 -198 -267 0 -113 50 -197 148 -248 68 -35 195 -38 268 -5 26 12 47 26 47 30 0 4 -17 38 -38 75 -36 64 -38 66 -62 53 -72 -37 -144 -22 -180 37 -25 42 -25 74 0 116 37 60 124 76 188 35 13 -8 25 -13 27 -11 6 7 75 135 75 140 0 3 -24 16 -52 28 -64 28 -167 35 -223 17z m164 -68 c33 -12 38 -37 5 -30 -76 14 -131 11 -174 -11 -122 -62 -122 -254 0 -315 47 -24 111 -30 154 -13 17 6 27 6 32 -1 11 -19 -13 -31 -74 -36 -53 -5 -69 -2 -115 21 -73 35 -109 88 -115 166 -7 103 27 167 112 206 56 26 123 31 175 13z"/>
 <path d="M520 960 l0 -270 68 0 68 0 68 100 c37 55 71 102 74 104 4 2 39 -42 77 -99 l70 -104 68 -1 67 0 0 270 0 270 -80 0 -80 0 0 -95 c0 -52 -4 -95 -9 -95 -4 0 -31 34 -59 76 l-50 76 -53 -78 -54 -79 -3 98 -3 97 -84 0 -85 0 0 -270z m102 28 l3 -181 83 121 c45 67 86 123 91 126 4 3 46 -51 92 -119 l84 -124 3 179 c2 151 5 180 17 180 13 0 15 -31 15 -210 0 -177 -2 -210 -14 -210 -8 0 -55 59 -103 130 l-88 130 -23 -27 c-12 -16 -53 -74 -90 -130 -37 -57 -73 -103 -79 -103 -10 0 -13 49 -13 210 0 130 4 210 10 210 6 0 11 -72 12 -182z"/>
 <path d="M1113 1198 c7 -18 53 -140 103 -270 l89 -238 61 0 61 0 96 253 c52 138 98 260 102 270 6 15 -1 17 -74 17 -78 0 -82 -1 -91 -25 -9 -24 -13 -25 -93 -25 -80 0 -84 1 -95 25 -11 24 -16 25 -92 25 l-80 0 13 -32z m114 -48 c5 -19 14 -20 138 -20 125 0 134 1 140 20 3 11 13 20 22 20 8 0 13 -6 11 -12 -3 -7 -38 -102 -79 -211 -63 -168 -77 -197 -93 -195 -15 2 -36 48 -98 208 -43 113 -78 206 -78 208 0 1 7 2 16 2 9 0 18 -9 21 -20z"/>
 <path d="M1252 1088 c55 -157 113 -296 119 -286 12 21 109 279 109 289 0 5 -52 9 -116 9 -89 0 -115 -3 -112 -12z m148 -33 c0 -9 -7 -32 -16 -53 l-16 -37 -19 40 c-26 57 -24 65 16 65 25 0 35 -4 35 -15z"/>
 <path d="M1650 958 l0 -271 130 6 c149 6 202 24 247 84 29 37 41 113 29 177 -14 72 -86 126 -188 141 l-48 6 0 65 0 64 -85 0 -85 0 0 -272z m100 148 l0 -63 73 -5 c122 -8 167 -48 167 -147 0 -42 -5 -56 -31 -85 -36 -41 -79 -56 -166 -56 l-63 0 0 210 c0 133 4 210 10 210 6 0 10 -28 10 -64z"/>
 <path d="M1750 895 l0 -115 60 0 c98 0 150 39 150 112 0 81 -47 118 -150 118 l-60 0 0 -115z m124 49 c27 -26 24 -71 -6 -96 -38 -33 -48 -24 -48 47 0 58 2 65 19 65 11 0 27 -7 35 -16z"/>
 <path d="M2110 958 l0 -271 128 6 c135 6 186 19 231 60 34 31 52 82 52 142 0 116 -62 180 -193 199 l-48 7 0 65 0 64 -85 0 -85 0 0 -272z m108 145 l3 -60 67 -5 c115 -8 162 -50 162 -142 0 -99 -48 -137 -177 -144 l-83 -5 0 213 c0 165 3 211 13 208 7 -3 13 -28 15 -65z"/>
 <path d="M2220 895 l0 -115 55 0 c61 0 105 18 129 52 19 27 21 106 3 129 -22 29 -75 49 -132 49 l-55 0 0 -115z m110 55 c24 -13 33 -53 18 -84 -6 -14 -14 -26 -17 -26 -3 0 -16 -3 -28 -6 -22 -6 -23 -4 -23 60 0 70 8 79 50 56z"/>
 <path d="M2570 960 l0 -270 90 0 90 0 0 270 0 270 -90 0 -90 0 0 -270z m108 -3 c2 -180 0 -207 -13 -207 -13 0 -15 29 -15 211 0 164 3 210 13 207 9 -4 13 -57 15 -211z"/>
 <path d="M2810 960 l0 -270 69 0 68 0 74 104 74 104 3 -104 3 -104 84 0 85 0 0 270 0 270 -69 0 -69 0 -76 -107 -76 -107 0 107 0 107 -85 0 -85 0 0 -270z m102 30 l3 -181 128 181 c71 99 135 180 143 180 12 0 14 -35 14 -210 0 -179 -2 -210 -15 -210 -12 0 -15 29 -17 180 l-3 181 -128 -181 c-71 -99 -135 -180 -143 -180 -12 0 -14 35 -14 210 0 179 2 210 15 210 12 0 15 -29 17 -180z"/>
 <path d="M3843 1198 c7 -18 53 -140 103 -270 l89 -238 61 0 61 0 96 253 c52 138 98 260 102 270 6 15 -1 17 -74 17 -78 0 -82 -1 -91 -25 -9 -24 -13 -25 -95 -25 -82 0 -86 1 -95 25 -9 24 -13 25 -90 25 l-80 0 13 -32z m114 -48 c5 -19 14 -20 138 -20 125 0 134 1 140 20 3 11 13 20 22 20 8 0 13 -6 11 -12 -3 -7 -38 -102 -79 -211 -64 -169 -77 -197 -94 -195 -15 2 -35 45 -97 208 -43 113 -78 206 -78 208 0 1 7 2 16 2 9 0 18 -9 21 -20z"/>
 <path d="M3982 1088 c35 -100 112 -297 115 -294 6 6 113 288 113 297 0 5 -52 9 -116 9 -89 0 -115 -3 -112 -12z m148 -32 c0 -7 -7 -31 -16 -52 l-17 -39 -18 40 c-26 57 -24 65 16 65 23 0 35 -5 35 -14z"/>
 <path d="M4840 960 l0 -270 155 0 155 0 0 70 0 70 -70 0 -70 0 0 35 0 35 70 0 70 0 0 60 0 60 -70 0 -70 0 0 35 0 35 75 0 75 0 0 70 0 70 -160 0 -160 0 0 -270z m270 195 c0 -12 -16 -15 -85 -15 l-85 0 1 -85 1 -85 80 0 c59 0 79 -3 76 -12 -3 -8 -32 -15 -79 -18 l-74 -5 -3 -77 -4 -78 86 0 c70 0 86 -3 86 -15 0 -12 -17 -15 -95 -15 l-95 0 0 210 0 210 95 0 c78 0 95 -3 95 -15z"/>
 </g>
<g id="layer8" fill="#ffffff" stroke="none">
 <path d="M0 925 l0 -925 2925 0 2925 0 0 925 0 925 -2925 0 -2925 0 0 -925z m3712 295 c25 -11 66 -42 92 -70 l47 -50 -3 -92 c-2 -51 -6 -92 -10 -90 -5 1 -51 2 -103 2 l-95 0 0 55 c0 50 2 55 23 55 l22 1 -24 19 c-14 13 -38 20 -63 20 -32 0 -47 -7 -74 -34 -29 -29 -34 -41 -34 -79 0 -38 5 -51 32 -77 27 -28 36 -31 72 -27 23 2 50 8 61 11 17 6 29 -4 68 -61 l47 -68 -22 -16 c-33 -26 -89 -39 -159 -39 -156 0 -273 120 -273 280 0 114 59 209 159 256 66 31 172 33 237 4z m1061 -10 c26 -13 46 -29 43 -34 -2 -6 -21 -41 -42 -77 l-39 -66 -35 18 c-19 11 -54 19 -78 19 -37 0 -50 -6 -78 -34 -28 -28 -34 -42 -34 -76 0 -34 6 -48 34 -76 39 -39 82 -44 143 -19 19 8 37 15 38 15 9 0 84 -143 80 -150 -13 -21 -119 -50 -183 -50 -132 0 -205 43 -260 150 -31 59 -33 71 -30 140 5 111 49 188 133 233 62 34 74 36 170 34 73 -2 99 -7 138 -27z m-4081 -72 l3 -93 49 73 c27 39 53 72 57 72 5 0 30 -32 56 -72 l48 -71 3 91 3 92 89 0 90 0 0 -270 0 -270 -75 0 -74 0 -58 86 c-32 47 -63 93 -69 101 -9 14 -22 0 -80 -85 l-69 -101 -72 -1 -73 0 0 270 0 270 85 0 84 0 3 -92z m586 67 c11 -24 16 -25 92 -25 77 0 80 1 86 25 6 24 9 25 94 25 l88 0 -100 -262 c-54 -145 -103 -267 -107 -271 -4 -4 -36 -7 -71 -5 l-62 3 -99 260 c-54 143 -99 263 -99 268 0 4 38 7 83 7 80 0 84 -1 95 -25z m542 -40 l0 -65 43 0 c52 0 136 -38 165 -74 53 -68 56 -178 6 -249 -47 -66 -108 -86 -261 -87 l-123 0 0 270 0 270 85 0 85 0 0 -65z m460 0 l0 -65 43 0 c46 0 132 -36 159 -66 74 -84 58 -243 -31 -301 -51 -35 -95 -43 -223 -43 l-118 0 0 270 0 270 85 0 85 0 0 -65z m470 -205 l0 -270 -90 0 -90 0 0 270 0 270 90 0 90 0 0 -270z m230 168 l0 -102 72 102 72 102 73 0 73 0 0 -270 0 -270 -85 0 -85 0 0 102 0 101 -72 -101 -73 -101 -72 -1 -73 0 0 270 0 270 85 0 85 0 0 -102z m1028 77 c11 -24 16 -25 91 -25 76 0 79 1 85 25 6 24 9 25 95 25 l88 0 -99 -262 c-54 -145 -103 -267 -107 -271 -4 -4 -36 -7 -71 -5 l-63 3 -98 260 c-55 143 -99 263 -99 268 0 4 38 7 83 7 80 0 84 -1 95 -25z m1152 -45 l0 -70 -75 0 -75 0 0 -30 0 -30 75 0 75 0 0 -70 0 -70 -75 0 -75 0 0 -30 0 -30 75 0 75 0 0 -70 0 -70 -160 0 -160 0 0 270 0 270 160 0 160 0 0 -70z"/>
 <path d="M3499 1140 c-141 -74 -138 -296 5 -364 35 -17 151 -22 160 -8 3 4 -25 8 -62 8 -84 -1 -139 30 -171 97 -47 97 -14 202 79 250 77 39 136 33 208 -20 28 -21 32 -29 32 -73 0 -48 -1 -49 -32 -53 -29 -3 -27 -4 10 -5 l42 -2 0 53 c0 47 -4 57 -32 84 -18 18 -46 37 -61 42 -45 17 -137 13 -178 -9z"/>
 <path d="M4583 1159 c-85 -15 -137 -60 -159 -136 -41 -142 52 -264 202 -262 64 0 105 11 87 22 -6 4 -23 3 -38 -3 -44 -17 -89 -11 -145 18 -42 21 -60 37 -77 71 -50 97 -18 205 77 254 57 29 113 35 155 15 23 -10 46 -6 33 7 -12 12 -96 20 -135 14z"/>
 <path d="M600 959 c0 -156 3 -200 13 -197 6 3 49 57 94 122 44 65 85 122 90 127 4 4 48 -50 96 -121 48 -72 92 -130 98 -130 5 0 9 81 9 202 0 131 -3 199 -10 192 -5 -5 -11 -87 -12 -181 l-3 -172 -84 124 c-47 69 -87 125 -90 125 -3 -1 -44 -58 -91 -127 l-85 -127 -3 182 c-1 110 -6 182 -12 182 -6 0 -10 -77 -10 -201z"/>
 <path d="M1200 1158 c0 -2 34 -91 74 -198 58 -152 78 -195 92 -195 14 0 34 42 91 190 40 105 72 193 73 198 0 16 -18 6 -23 -13 -5 -19 -14 -20 -140 -20 -127 0 -136 1 -142 20 -3 11 -11 20 -16 20 -5 0 -9 -1 -9 -2z m290 -57 c0 -12 -112 -305 -120 -314 -5 -6 -71 153 -128 311 -3 9 25 12 122 12 69 0 126 -4 126 -9z"/>
 <path d="M1347 1020 c18 -44 24 -43 41 8 11 32 11 32 -23 32 l-33 0 15 -40z"/>
 <path d="M1730 960 l0 -200 76 0 c127 0 178 38 178 135 0 95 -50 135 -169 135 l-65 0 0 65 c0 37 -4 65 -10 65 -6 0 -10 -73 -10 -200z m151 49 c61 -19 84 -51 84 -116 0 -47 -4 -58 -28 -78 -32 -28 -86 -45 -144 -45 l-43 0 0 125 0 125 46 0 c26 0 64 -5 85 -11z"/>
 <path d="M1820 895 c0 -48 3 -55 19 -55 11 0 27 7 35 16 32 31 12 94 -29 94 -24 0 -25 -3 -25 -55z"/>
 <path d="M2190 960 l0 -200 78 0 c92 0 138 20 164 71 23 43 23 85 0 129 -24 49 -71 70 -154 70 l-68 0 0 65 c0 37 -4 65 -10 65 -6 0 -10 -73 -10 -200z m151 49 c60 -19 84 -51 84 -114 0 -42 -5 -59 -23 -78 -26 -28 -89 -47 -151 -47 l-41 0 0 125 0 125 46 0 c26 0 64 -5 85 -11z"/>
 <path d="M2280 895 c0 -52 1 -55 25 -55 27 0 45 25 45 62 0 30 -17 48 -47 48 -21 0 -23 -4 -23 -55z"/>
 <path d="M2650 960 c0 -127 4 -200 10 -200 6 0 10 73 10 200 0 127 -4 200 -10 200 -6 0 -10 -73 -10 -200z"/>
 <path d="M2892 963 c-1 -117 2 -203 7 -203 5 0 69 84 143 187 l133 188 5 -190 6 -190 2 203 c1 118 -2 202 -7 202 -5 0 -69 -84 -143 -187 l-133 -188 -5 190 -6 190 -2 -202z"/>
 <path d="M3930 1158 c0 -2 33 -91 74 -198 59 -154 78 -195 92 -195 15 0 34 40 91 190 40 105 72 193 73 198 0 16 -18 6 -23 -13 -5 -19 -14 -20 -140 -20 -127 0 -136 1 -142 20 -3 11 -11 20 -16 20 -5 0 -9 -1 -9 -2z m290 -57 c0 -5 -24 -72 -53 -148 -30 -76 -57 -147 -61 -158 -6 -17 -9 -18 -16 -5 -9 16 -120 308 -120 315 0 3 56 5 125 5 70 0 125 -4 125 -9z"/>
 <path d="M4077 1020 c9 -22 18 -39 19 -37 2 2 10 20 19 40 l15 37 -34 0 -34 0 15 -40z"/>
 <path d="M4920 960 l0 -200 93 2 92 2 -82 3 -83 4 0 89 0 90 75 0 c43 0 75 4 75 10 0 6 -32 10 -75 10 l-75 0 0 90 0 89 83 4 82 3 -92 2 -93 2 0 -200z"/>
 </g>

</svg>